<?xml version="1.0" encoding="utf-8"?>
<!-- Generator: Adobe Illustrator 24.1.2, SVG Export Plug-In . SVG Version: 6.00 Build 0)  -->
<svg version="1.1" id="Camada_1" xmlns="http://www.w3.org/2000/svg" xmlns:xlink="http://www.w3.org/1999/xlink" x="0px" y="0px"
	 viewBox="0 0 493.7 700.2" style="enable-background:new 0 0 493.7 700.2;" xml:space="preserve">
<style type="text/css">
	.st0{fill:#042E40;}
	.st1{fill:#DA3B3B;}
	.st2{fill:#F3965F;}
</style>
<path class="st0" d="M451.3,700.2c-13.6-112.5-109.5-199.7-225.7-199.7S13.6,587.7,0,700.2H451.3z"/>
<path class="st0" d="M393.5,18.8c-4.7,0-9-2.2-11.7-6.1l-0.9-1.3c-3.3-4.7-9.9-5.8-14.6-2.5c-1,0.7-1.8,1.5-2.5,2.5l-0.7,1.1
	c-4.6,6.5-13.5,8-19.9,3.4c-1.3-0.9-2.5-2.1-3.4-3.4l-1-1.5c-3.4-4.7-9.9-5.8-14.6-2.5c-1,0.7-1.8,1.5-2.5,2.5l-0.5,0.8
	c-2.7,3.8-7,6.1-11.7,6.1l0,0c-4.7,0-9-2.2-11.7-6.1l-0.4-0.6c-3.3-4.7-9.9-5.8-14.6-2.5c-1,0.7-1.8,1.5-2.5,2.5l-2.1,3l-3.1-2.2
	l2.1-3c4.6-6.5,13.5-8,20-3.4c1.3,0.9,2.5,2.1,3.4,3.4l0.4,0.6c3.3,4.7,9.9,5.9,14.6,2.5c1-0.7,1.8-1.5,2.5-2.5l0.5-0.8
	c4.6-6.5,13.5-8,20-3.4c1.3,0.9,2.5,2.1,3.4,3.4l1.1,1.5c3.3,4.7,9.9,5.8,14.6,2.5c1-0.7,1.8-1.5,2.5-2.5l0.8-1.1
	c2.7-3.8,7-6,11.7-6l0,0c4.6,0,9,2.2,11.7,6l0.9,1.3c3.3,4.7,9.9,5.8,14.6,2.5c1-0.7,1.8-1.5,2.5-2.5l1.7-2.4c4.6-6.5,13.5-8,20-3.4
	c1.3,0.9,2.5,2.1,3.4,3.4c3.3,4.7,9.9,5.8,14.6,2.5c1-0.7,1.8-1.5,2.5-2.5l1.4-2c4.6-6.5,13.5-8,19.9-3.4c1.3,0.9,2.5,2.1,3.4,3.4
	l2.8,3.9c3.3,4.7,9.9,5.8,14.6,2.5c1-0.7,1.8-1.5,2.5-2.5l1.7-2.4l3.1,2.2l-1.7,2.4c-4.6,6.5-13.5,8-20,3.4
	c-1.3-0.9-2.5-2.1-3.4-3.4l-2.8-3.9c-3.3-4.7-9.9-5.8-14.6-2.5c-1,0.7-1.8,1.5-2.5,2.5l-1.4,2c-4.6,6.5-13.5,8-20,3.4
	c-1.3-0.9-2.5-2.1-3.4-3.4c-3.3-4.7-9.9-5.8-14.6-2.5c-1,0.7-1.8,1.5-2.5,2.5l-1.7,2.4C402.5,16.5,398.1,18.8,393.5,18.8z"/>
<path class="st0" d="M393.5,37.5c-4.6,0-9-2.2-11.7-6l-0.9-1.3c-3.3-4.7-9.9-5.8-14.6-2.5c-1,0.7-1.8,1.5-2.5,2.5l-0.7,1
	c-4.6,6.5-13.5,8-19.9,3.4c-1.3-0.9-2.5-2.1-3.4-3.4l-1.1-1.5c-3.3-4.7-9.9-5.8-14.6-2.5c-1,0.7-1.8,1.5-2.5,2.5l-0.5,0.8
	c-2.7,3.8-7,6-11.7,6l0,0c-4.6,0-9-2.2-11.7-6l-0.4-0.6c-3.3-4.7-9.9-5.8-14.6-2.5c-1,0.7-1.8,1.5-2.5,2.5l-2.1,3l-3.1-2.2l2.1-3
	c4.6-6.5,13.5-8,19.9-3.4c1.3,0.9,2.5,2.1,3.4,3.4l0.4,0.6c3.3,4.7,9.9,5.8,14.6,2.5c1-0.7,1.8-1.5,2.5-2.5l0.5-0.8
	c4.6-6.5,13.5-8,20-3.4c1.3,0.9,2.5,2.1,3.4,3.4l1.1,1.5c3.3,4.7,9.9,5.8,14.6,2.5c1-0.7,1.8-1.5,2.5-2.5l0.8-1
	c2.7-3.8,7-6.1,11.7-6.1l0,0c4.7,0,9,2.2,11.7,6.1l0.9,1.3c3.3,4.7,9.9,5.8,14.6,2.5c1-0.7,1.8-1.5,2.5-2.5l1.7-2.4
	c4.6-6.5,13.5-8,20-3.4c1.3,0.9,2.5,2.1,3.4,3.4c3.3,4.7,9.9,5.8,14.6,2.5c1-0.7,1.8-1.5,2.5-2.5l1.4-2c4.6-6.5,13.5-8,19.9-3.4
	c1.3,0.9,2.5,2.1,3.4,3.4l2.8,3.9c3.4,4.7,9.9,5.8,14.6,2.5c1-0.7,1.8-1.5,2.5-2.5l1.7-2.4l3.1,2.2l-1.7,2.4c-4.6,6.5-13.5,8-20,3.4
	c-1.3-0.9-2.5-2.1-3.4-3.4l-2.8-3.9c-3.3-4.7-9.9-5.8-14.6-2.5c-1,0.7-1.8,1.5-2.5,2.5l-1.4,2c-4.6,6.5-13.5,8-20,3.4
	c-1.3-0.9-2.5-2.1-3.4-3.4c-3.3-4.7-9.9-5.8-14.6-2.5c-1,0.7-1.8,1.5-2.5,2.5l-1.7,2.4C402.5,35.2,398.1,37.5,393.5,37.5z"/>
<rect x="378.3" y="426.9" class="st1" width="3.5" height="18.2"/>
<rect x="378.3" y="403.3" class="st1" width="3.5" height="18.2"/>
<rect x="378.3" y="379.7" class="st1" width="3.5" height="18.2"/>
<rect x="378.3" y="356.1" class="st1" width="3.5" height="18.2"/>
<rect x="378.3" y="332.5" class="st1" width="3.5" height="18.2"/>
<rect x="378.3" y="308.9" class="st1" width="3.5" height="18.2"/>
<rect x="378.3" y="285.3" class="st1" width="3.5" height="18.2"/>
<rect x="378.3" y="261.7" class="st1" width="3.5" height="18.2"/>
<rect x="396.6" y="426.9" class="st1" width="3.5" height="18.2"/>
<rect x="396.6" y="403.3" class="st1" width="3.5" height="18.2"/>
<rect x="396.6" y="379.7" class="st1" width="3.5" height="18.2"/>
<rect x="396.6" y="356.1" class="st1" width="3.5" height="18.2"/>
<rect x="396.6" y="332.5" class="st1" width="3.5" height="18.2"/>
<rect x="396.6" y="308.9" class="st1" width="3.5" height="18.2"/>
<rect x="396.6" y="285.3" class="st1" width="3.5" height="18.2"/>
<rect x="396.6" y="261.7" class="st1" width="3.5" height="18.2"/>
<rect x="413.7" y="426.9" class="st1" width="3.5" height="18.2"/>
<rect x="413.7" y="403.3" class="st1" width="3.5" height="18.2"/>
<rect x="413.7" y="379.7" class="st1" width="3.5" height="18.2"/>
<rect x="413.7" y="356.1" class="st1" width="3.5" height="18.2"/>
<rect x="413.7" y="332.5" class="st1" width="3.5" height="18.2"/>
<rect x="413.7" y="308.9" class="st1" width="3.5" height="18.2"/>
<rect x="413.7" y="285.3" class="st1" width="3.5" height="18.2"/>
<rect x="413.7" y="261.7" class="st1" width="3.5" height="18.2"/>
<ellipse transform="matrix(0.7071 -0.7071 0.7071 0.7071 -58.1641 113.511)" class="st2" cx="107.9" cy="127" rx="26.9" ry="26.9"/>
<path class="st1" d="M99.6,127.4c-3.8,0-6.9-3.1-6.9-6.9s3.1-6.9,6.9-6.9c3.8,0,6.9,3.1,6.9,6.9S103.4,127.4,99.6,127.4L99.6,127.4z
	 M99.6,114.4c-3.4,0-6.1,2.7-6.1,6.1s2.7,6.1,6.1,6.1c3.4,0,6.1-2.7,6.1-6.1l0,0C105.6,117.1,102.9,114.4,99.6,114.4L99.6,114.4z"/>
<path class="st1" d="M99.6,133.8c-7.3,0-13.3-6-13.3-13.3c0-7.3,5.9-13.3,13.3-13.3v0.8c-6.9,0-12.5,5.6-12.5,12.5
	c0,6.9,5.6,12.5,12.5,12.5c6.9,0,12.5-5.6,12.5-12.5h0.8C112.9,127.8,106.9,133.8,99.6,133.8z"/>
<path class="st1" d="M99.6,142.4c-12.1,0-21.9-9.8-21.9-21.9h0.8c0,11.7,9.5,21.2,21.1,21.2s21.2-9.5,21.2-21.1
	c0-8.9-5.5-16.8-13.8-19.8l0.3-0.7c11.4,4.2,17.2,16.8,13,28.2C117,136.7,108.7,142.4,99.6,142.4L99.6,142.4z"/>
<path class="st1" d="M99.6,148c-15.2,0-27.4-12.3-27.4-27.5s12.3-27.4,27.5-27.4c15.2,0,27.4,12.3,27.4,27.5
	c0,5.7-1.8,11.3-5.1,15.9l-0.6-0.5c8.6-12,5.8-28.7-6.2-37.2s-28.7-5.8-37.2,6.2c-8.6,12-5.8,28.7,6.2,37.2c4.5,3.2,10,5,15.5,5V148
	z"/>
</svg>
