<?xml version="1.0" encoding="utf-8"?>
<!-- Generator: Adobe Illustrator 24.1.2, SVG Export Plug-In . SVG Version: 6.00 Build 0)  -->
<svg version="1.1" id="Camada_1" xmlns="http://www.w3.org/2000/svg" xmlns:xlink="http://www.w3.org/1999/xlink" x="0px" y="0px"
	 viewBox="0 0 355.7 229.4" style="enable-background:new 0 0 355.7 229.4;" xml:space="preserve">
<style type="text/css">
	.st0{fill:#F2955E;}
	.st1{fill:#D93B3B;}
	.st2{fill:#F2F0EB;}
	.st3{opacity:0.1;}
	.st4{opacity:0.86;fill:#FFFFFF;enable-background:new    ;}
	.st5{opacity:0.35;fill:#FFFFFF;enable-background:new    ;}
	.st6{opacity:0.1;fill:url(#SVGID_1_);enable-background:new    ;}
</style>
<g id="Camada_2_1_">
	<g id="Camada_1-2">
		<circle class="st0" cx="288" cy="86.7" r="39.4"/>
		<path class="st1" d="M293.1,98.2c-3.5,0-6.7-1.8-8.5-4.7l0,0c-3-4.7-1.6-10.9,3.1-13.9c4.7-3,10.9-1.6,13.9,3.1s1.6,10.9-3.1,13.9
			C296.9,97.7,295,98.2,293.1,98.2z M285.6,92.9c2.6,4.2,8.1,5.4,12.3,2.8s5.4-8.1,2.8-12.3c-2.6-4.2-8.1-5.4-12.3-2.8
			C284.2,83.2,282.9,88.8,285.6,92.9C285.5,92.9,285.5,92.9,285.6,92.9z"/>
		<path class="st1" d="M303.5,104.6l-0.6-1c8.5-5.4,11.1-16.7,5.7-25.2c-5.4-8.5-16.7-11.1-25.2-5.7c-8.5,5.4-11.1,16.7-5.7,25.2
			l-1,0.6c-5.7-9.1-3-21.1,6.1-26.8s21.1-3,26.8,6.1C315.2,86.8,312.5,98.8,303.5,104.6C303.5,104.6,303.5,104.6,303.5,104.6
			L303.5,104.6z"/>
		<path class="st1" d="M293.2,120.3c-17.7,0-32.2-14.3-32.2-32c0-17.7,14.3-32.2,32-32.2c11,0,21.3,5.6,27.2,15l-1,0.6
			c-9.1-14.5-28.3-18.8-42.7-9.7s-18.8,28.3-9.7,42.7c6.9,11,20,16.5,32.7,13.8l0.2,1.1C297.6,120,295.4,120.3,293.2,120.3z"/>
		<path class="st1" d="M293.1,128.4c-22.2,0-40.2-17.9-40.3-40.1c0-0.8,0-1.6,0.1-2.4l1.1,0.1c-1.3,21.6,15.2,40,36.8,41.3
			c21.6,1.3,40-15.2,41.3-36.8s-15.2-40-36.8-41.3c-8.1-0.5-16.2,1.6-23.1,6l-0.6-1c18.8-11.9,43.6-6.3,55.5,12.5
			c11.9,18.8,6.3,43.6-12.5,55.5C308.2,126.2,300.7,128.3,293.1,128.4L293.1,128.4z"/>
		<path class="st2" d="M129.2,52c0,31.9-24.4,52-62.8,52H46.5v33.9H0V0h66.3C104.7,0,129.2,20.1,129.2,52z M82.3,52
			c0-10-6.1-16.2-18.9-16.2H46.5v32.3h16.9C76.2,68.1,82.3,62,82.3,52z"/>
		<path class="st2" d="M222.1,28.1v39.4c-3.3-0.5-6.5-0.8-9.8-0.8c-13.4,0-22.8,6.1-22.8,23.2v47.8h-44.5V30.1h42.3v11.6
			C195.1,32.7,207.1,28.1,222.1,28.1z"/>
		<path class="st2" d="M181.9,225.9c4.7,3.7,9.5,5.3,13.2,0.6l36-45.6c3.7-4.7,1-9-3.7-12.7s-9.5-5.3-13.2-0.6l-36,45.7
			C174.5,217.9,177.2,222.3,181.9,225.9z"/>
		<path class="st3" d="M225.6,166.9c3.5,3.3,5.1,7.1,1.9,11.2l-36,45.6c-3.2,4-7.3,3.4-11.4,0.7c-3.5-3.3-5.1-7.2-1.9-11.2l36-45.7
			C217.4,163.5,221.5,164.2,225.6,166.9z"/>
		<path class="st2" d="M224.3,172.2c2.8,2.2,4.9,4.1,7.1,1.4l27.8-35.2c2.2-2.8,1.7-6.8-1-9.1c-2.8-2.2-6.8-1.7-9.1,1.1l0,0
			l-27.8,35.2C219.1,168.4,221.5,170,224.3,172.2z"/>
		<path class="st4" d="M254.5,119c24.9,19.6,61,15.4,80.7-9.5c7.9-10.1,12.3-22.5,12.3-35.3c7.6,30.8-11.1,62-41.9,69.6
			c-30.8,7.6-62-11.1-69.6-41.9c-1.2-4.7-1.7-9.5-1.7-14.3C237.3,100,244.5,111.1,254.5,119z"/>
		<path class="st5" d="M345.4,102.8c0,0-95.8,10.8-102.8,11.3s-4.4-15.4-4.4-15.4l114-12.1L345.4,102.8z"/>
		<path class="st5" d="M346.3,76.3c0,0-102.2,11.7-109.2,12.3s-4-5-4-5l116-13.7L346.3,76.3z"/>
		<path class="st3" d="M259.2,138.4l-9.8,12.4c-0.6-0.2-1.2-0.6-1.8-1l-6.8-5.4c-0.6-0.5-1.1-1-1.5-1.6l9.7-12.3
			c0.8-1,1.8-1.7,2.9-2.1l8.5,6.7C260.4,136.3,260,137.4,259.2,138.4z"/>
		<path class="st2" d="M355.2,80.3c-4.2-35-35.9-60.1-71-55.9s-60.1,35.9-55.9,71c1.2,10.2,4.9,20,10.7,28.5c-0.1,0.7,0,1.4,0.2,2.2
			l2.7,10.6c0.4,1.4,1.1,2.6,2.3,3.5l6.8,5.4c1.2,0.9,2.6,1.4,4.1,1.4l10.3-0.1c0.5,0,0.9-0.1,1.4-0.2c32.5,13.8,70-1.3,83.8-33.8
			C354.9,102.6,356.5,91.4,355.2,80.3L355.2,80.3z M331.8,119.4c-17.5,22.1-49.5,25.9-71.7,8.4l0,0c-22.1-17.5-25.9-49.5-8.4-71.6
			c17.5-22.1,49.5-25.9,71.6-8.4C345.5,65.3,349.3,97.3,331.8,119.4L331.8,119.4z"/>
		
			<linearGradient id="SVGID_1_" gradientUnits="userSpaceOnUse" x1="6597.0605" y1="-3545.5261" x2="6711.9766" y2="-3545.5261" gradientTransform="matrix(-0.7882 -0.6155 0.6155 -0.7882 7734.4717 1401.5426)">
			<stop  offset="1.000000e-02" style="stop-color:#BAE1FF"/>
			<stop  offset="1" style="stop-color:#86C0FF"/>
		</linearGradient>
		<circle class="st6" cx="291.8" cy="87.8" r="57.5"/>
	</g>
</g>
</svg>
