<svg xmlns="http://www.w3.org/2000/svg" xmlns:xlink="http://www.w3.org/1999/xlink" viewBox="0 0 887.38 229.45"><defs><style>.cls-1{fill:#f2955e;}.cls-2{fill:#d93b3b;}.cls-3{fill:#91d7f2;}.cls-4{fill:#022e40;}.cls-5{fill:#033b4c;}.cls-6,.cls-7{fill:#fff;}.cls-6{opacity:0.86;}.cls-7{opacity:0.35;}.cls-8{opacity:0.1;fill:url(#Безымянный_градиент_505);}</style><linearGradient id="Безымянный_градиент_505" x1="5083.1" y1="3284.94" x2="5198.02" y2="3284.94" gradientTransform="matrix(-0.76, -0.65, -0.65, 0.76, 6329.09, 963.25)" gradientUnits="userSpaceOnUse"><stop offset="0.01" stop-color="#bae1ff"/><stop offset="1" stop-color="#86c0ff"/></linearGradient></defs><g id="Camada_2" data-name="Camada 2"><g id="Camada_1-2" data-name="Camada 1"><circle class="cls-1" cx="287.99" cy="86.7" r="39.43" transform="translate(121.27 337.01) rotate(-73.09)"/><path class="cls-2" d="M293.1,98.22a10.07,10.07,0,0,1-8.53-4.69h0a10.08,10.08,0,1,1,8.53,4.69Zm-7.55-5.3a8.92,8.92,0,1,0,2.77-12.31,8.92,8.92,0,0,0-2.77,12.31Z"/><path class="cls-2" d="M303.47,104.6l-.61-1a18.29,18.29,0,1,0-25.24-5.7l-1,.62a19.45,19.45,0,1,1,26.83,6.06Z"/><path class="cls-2" d="M293.16,120.27A32.12,32.12,0,1,1,320.24,71l-1,.62a31,31,0,1,0-19.75,46.83l.24,1.13A32.22,32.22,0,0,1,293.16,120.27Z"/><path class="cls-2" d="M293.15,128.37a40.21,40.21,0,0,1-40.23-42.54l1.15.07a39.09,39.09,0,1,0,18.15-30.78l-.62-1a40.23,40.23,0,1,1,21.55,74.23Z"/><path class="cls-3" d="M514.3,52c0,31.89-24.42,52-62.81,52H431.61v33.87H385.14V0h66.35C489.88,0,514.3,20.08,514.3,52Zm-46.86,0c0-10-6.1-16.15-18.9-16.15H431.61V68.12h16.93C461.34,68.12,467.44,62,467.44,52Z"/><path class="cls-3" d="M522.37,83.87c0-32.68,26.18-55.72,62.61-55.72,36.62,0,62.6,23,62.6,55.72s-26,55.92-62.6,55.92C548.55,139.79,522.37,116.56,522.37,83.87Zm80.13,0c0-14-7.68-21.06-17.52-21.06s-17.53,7.08-17.53,21.06,7.68,21.27,17.53,21.27S602.5,97.85,602.5,83.87Z"/><path class="cls-3" d="M654.86,129.16l12.21-29.34c10.24,6.1,24.81,9.65,37.6,9.65,10.83,0,13.79-2,13.79-5.12,0-11-62,3.74-62-39.38,0-20.28,18.9-36.82,55.13-36.82,15.75,0,32.48,3,43.9,8.86L743.26,66.35a63.82,63.82,0,0,0-31.1-7.88c-11.42,0-14.57,2.56-14.57,5.12,0,11.23,61.82-3.34,61.82,39.77,0,19.5-18.31,36.43-55.72,36.43C685.18,139.79,665.89,135.46,654.86,129.16Z"/><path class="cls-3" d="M886.79,94.31H812c3.15,8.27,10.63,12.6,21.66,12.6,9.84,0,15.35-2.56,22.44-7.88l23.23,23.43c-10.43,11.42-25.59,17.33-47,17.33-39.57,0-65.17-23.83-65.17-55.92,0-32.68,26.19-55.72,61-55.72,31.9,0,59.27,19.3,59.27,55.72C887.38,87,887,91.16,886.79,94.31ZM811.18,72.85h34.65c-1.77-9.06-8.26-14.38-17.32-14.38C819.25,58.47,813,63.79,811.18,72.85Z"/><path class="cls-4" d="M129.16,52c0,31.89-24.42,52-62.81,52H46.46v33.87H0V0H66.35C104.74,0,129.16,20.08,129.16,52ZM82.3,52c0-10-6.11-16.15-18.9-16.15H46.46V68.12H63.4C76.19,68.12,82.3,62,82.3,52Z"/><path class="cls-4" d="M222.08,28.15V67.53a61.82,61.82,0,0,0-9.84-.79c-13.39,0-22.84,6.11-22.84,23.24v47.84H144.9V30.12h42.33V41.74C195.11,32.68,207.12,28.15,222.08,28.15Z"/><path class="cls-4" d="M181.9,225.94c4.67,3.69,9.54,5.31,13.22.63l36-45.64c3.69-4.67,1-9-3.69-12.71s-9.54-5.31-13.22-.64l-36,45.65C174.52,217.9,177.23,222.26,181.9,225.94Z"/><path class="cls-4" d="M225.58,166.87c3.52,3.34,5.13,7.15,1.94,11.2l-36,45.64c-3.2,4-7.28,3.37-11.35.72-3.53-3.34-5.14-7.16-1.94-11.2l36-45.65C217.42,163.54,221.5,164.22,225.58,166.87Z"/><path class="cls-5" d="M224.32,172.19c2.78,2.2,4.92,4.14,7.12,1.35l27.76-35.17a6.43,6.43,0,0,0-10.1-8l-27.76,35.18C219.14,168.36,221.53,170,224.32,172.19Z"/><path class="cls-6" d="M254.53,119a57.44,57.44,0,0,0,93-44.81A57.45,57.45,0,1,1,234.32,87.54,57.19,57.19,0,0,0,254.53,119Z"/><path class="cls-7" d="M345.36,102.81s-95.8,10.76-102.75,11.31-4.36-15.45-4.36-15.45l114-12.07Z"/><path class="cls-7" d="M346.3,76.31S244.05,88,237.1,88.56s-4-5-4-5l116-13.68Z"/><path class="cls-4" d="M259.2,138.37l-9.77,12.38a6.63,6.63,0,0,1-1.78-1l-6.81-5.38a6.37,6.37,0,0,1-1.47-1.64l9.73-12.34a6.35,6.35,0,0,1,2.92-2.07l8.52,6.72A6.41,6.41,0,0,1,259.2,138.37Z"/><path class="cls-4" d="M355.22,80.35A63.89,63.89,0,1,0,239,123.9a6.55,6.55,0,0,0,.17,2.15l2.71,10.62a6.54,6.54,0,0,0,2.26,3.49l6.82,5.38a6.51,6.51,0,0,0,4.11,1.39l10.28-.15a6.93,6.93,0,0,0,1.37-.16,63.89,63.89,0,0,0,88.47-66.27Zm-23.4,39.09a51.09,51.09,0,0,1-71.66,8.45h0a51,51,0,1,1,71.67-8.44Z"/><circle class="cls-8" cx="291.77" cy="87.83" r="57.46" transform="translate(-3.62 13.07) rotate(-2.55)"/></g></g></svg>